<?xml version="1.0" encoding="utf-8"?>
<!-- Generator: Adobe Illustrator 21.1.0, SVG Export Plug-In . SVG Version: 6.00 Build 0)  -->
<svg version="1.2" baseProfile="tiny" id="Layer_1" xmlns="http://www.w3.org/2000/svg" xmlns:xlink="http://www.w3.org/1999/xlink"
	 x="0px" y="0px" viewBox="0 0 160 32" xml:space="preserve">
<path fill="#FFFFFF" d="M4.5,18.6v2.1c0,5.1,1.8,6.7,7.3,6.7c0.9,0,2.6-0.1,4.3-0.4v-3c-1.7,0.1-3.3,0.3-4.3,0.3
	c-2.8,0-3.7-0.9-3.7-3.5v-2.1c0-2.7,0.9-3.5,3.7-3.5c1,0,2.7,0.1,4.3,0.3v-3c-1.7-0.3-3.4-0.4-4.3-0.4C6.3,11.9,4.5,13.6,4.5,18.6z
	 M26.4,12c-1.4,0-3.8,0.1-6.1,0.4v3.1c2.3-0.3,4.7-0.4,6-0.4c1.7,0,2.4,0.7,2.4,2.4v0.7h-2.8c-5.1,0-6.7,1-6.7,4.5
	c0,3.4,1.4,4.5,6,4.5c2.1,0,5-0.1,7.3-0.3V16.7C32.4,12.9,31.1,12,26.4,12z M28.5,24.4c-0.7,0.1-1.6,0.1-2.7,0.1
	c-2.3,0-2.8-0.4-3-1.7c0-1.3,0.7-1.7,3-1.7h2.7V24.4z M36.2,18.6v2.1c0,5.1,1.8,6.7,7.3,6.7c0.9,0,2.6-0.1,4.3-0.4v-3
	c-1.7,0.1-3.4,0.3-4.3,0.3c-2.8,0-3.7-0.9-3.7-3.5v-2.1c0-2.7,0.9-3.5,3.7-3.5c1,0,2.7,0.1,4.3,0.3v-3c-1.7-0.3-3.4-0.4-4.3-0.4
	C38.1,11.9,36.2,13.6,36.2,18.6z M60.8,11.9c-1.7,0-3.7,0.1-5.4,0.6v-8h-3.7v22.7h3.7V15.3c1.7-0.1,2.7-0.3,4.1-0.3
	c1.7,0,2.4,0.7,2.4,2.4v9.8h3.7V16.7C65.6,13.2,64.4,11.9,60.8,11.9z M76.3,12c-1.4,0-3.8,0.1-6.1,0.4v3.1c2.3-0.3,4.7-0.4,6-0.4
	c1.7,0,2.4,0.7,2.4,2.4v0.7h-2.7c-5.1,0-6.7,1-6.7,4.5c0,3.4,1.4,4.5,6,4.5c2.1,0,5-0.1,7.3-0.3V16.7C82.4,12.9,81.3,12,76.3,12z
	 M78.6,24.4c-0.7,0.1-1.6,0.1-2.7,0.1c-2.3,0-2.8-0.4-3-1.7c0-1.3,0.7-1.7,3-1.7h2.7V24.4z M86.8,27.2h3.7V4.5h-3.7V27.2z M102,11.9
	c-5.8,0-7.7,1.7-7.7,6.7v2.1c0,5.1,1.8,6.7,7.7,6.7c5.8,0,7.7-1.7,7.7-6.7v-2.1C109.7,13.4,107.9,11.9,102,11.9z M105.9,20.7
	c0,2.8-0.7,3.5-3.8,3.5c-3,0-3.8-0.9-3.8-3.5v-2.1c0-2.7,0.7-3.5,3.8-3.5c3,0,3.8,0.9,3.8,3.5V20.7z M117.3,22v-6.2h5.8v-3.1h-5.8
	V9.5h-3.7v13.2c0,3.5,1.3,4.8,5.1,4.8c1.4,0,3.1-0.1,4.8-0.4v-3c-1.4,0.1-3,0.1-4,0.3C118,24.4,117.3,23.7,117.3,22z M133.5,11.9
	c-5.1,0-7,1.7-7,6.7v2.1c0,5.1,1.8,6.7,7.3,6.7c1,0,2.7-0.1,5.3-0.4v-3c-1.7,0.1-3.7,0.3-5.1,0.3c-2.7,0-3.6-0.7-3.7-3h10
	c0.1-0.9,0.1-1.7,0.3-2.7C140.4,13.4,138.6,11.9,133.5,11.9z M130,18.4c0.1-2.7,1-3.4,3.3-3.4c2.4,0,3.3,0.9,3.3,3.4H130z M151.2,18
	h-1.8c-1.6,0-1.8-0.3-1.8-1.1V16c0-0.9,0.4-1.1,2.4-1.1c1.6,0,3.1,0.1,4.7,0.3v-3c-1.8-0.3-3.4-0.4-4.8-0.4c-4.3,0-6,1.1-6,4.1v0.9
	c0,3.3,1,4.4,4.3,4.4h1.7c1.6,0,1.8,0.3,1.8,1.1v0.9c0,0.9-0.4,1.1-2.7,1.1c-1.7,0-3.4,0-5-0.3v3c2,0.3,3.7,0.4,5.3,0.4
	c4.5,0,6.3-1.1,6.3-4.1v-0.9C155.5,19,154.5,18,151.2,18z"/>
</svg>
