<?xml version="1.0" encoding="utf-8"?>
<!-- Generator: Adobe Illustrator 21.1.0, SVG Export Plug-In . SVG Version: 6.00 Build 0)  -->
<svg version="1.2" baseProfile="tiny" id="Cachalotes_Logo"
	 xmlns="http://www.w3.org/2000/svg" xmlns:xlink="http://www.w3.org/1999/xlink" x="0px" y="0px" viewBox="0 0 120 48"
	 xml:space="preserve">
<path id="Whale" fill="#FFFFFF" d="M3,28.4c0-7.5,3-14,7.5-17H7c-2.8,0-4-1.1-4-4V0h7.3c3.2,0,4.9,0.9,6.1,2.9
	C17.6,0.8,19.3,0,22.5,0h7.3v7.4c0,2.8-1.1,4-4,4h-6.6V27h30.7l6.5,6.5v10.3c0,2.8-1.1,4.1-4,4.1H24C10.6,48,3,40.2,3,28.4z
	 M52.4,46.2c1.5,0,2.2-0.8,2.2-2.3v-9.7l-5.4-5.4H17.3V9.6h8.4c1.5,0,2.2-0.7,2.2-2.2V1.8h-5.4c-3.2,0-5.2,1.6-5.2,4.2h-1.8
	c0-2.6-2-4.2-5.2-4.2H4.8v5.6c0,1.5,0.7,2.2,2.2,2.2h8.5C8.6,13.3,4.8,19.4,4.8,28.4c0,11.3,7,17.8,19.2,17.8H52.4z M35.8,41.2
	c0-1,0.8-1.8,1.8-1.8s1.8,0.8,1.8,1.8S38.6,43,37.6,43S35.8,42.2,35.8,41.2z"/>
<path id="Logotype" fill="#FFFFFF" d="M22.1,18.1v1.4c0,3.2,1.2,4.2,4.6,4c0.5,0,1.6-0.1,2.7-0.2v-1.9c-1,0.1-2,0.2-2.6,0.2
	c-1.8,0-2.3-0.5-2.3-2.2V18c0-1.7,0.5-2.2,2.3-2.2c0.5,0,1.6,0.1,2.6,0.2v-1.9c-1.1-0.1-2.2-0.2-2.7-0.2
	C23.2,13.9,22.1,15,22.1,18.1z M57.2,14c-1,0-2.2,0.2-3.3,0.4v-5h-2.3v14.2h2.3v-7.4c1.1-0.1,1.7-0.2,2.6-0.2c1.1,0,1.5,0.4,1.5,1.5
	v6.1h2.3v-6.5C60.3,14.8,59.5,14,57.2,14z M35.8,14.1c-0.9,0-2.4,0-3.8,0.2v2c1.4-0.1,2.9-0.2,3.7-0.2c1.1,0,1.5,0.4,1.5,1.5V18
	h-1.7c-3.2,0-4.2,0.7-4.2,2.9s0.9,2.9,3.7,2.9c1.3,0,3.1-0.1,4.5-0.2v-6.5C39.5,14.7,38.8,14.1,35.8,14.1z M37.1,21.8
	c-0.5,0.1-1,0.1-1.7,0.1c-1.4,0-1.8-0.3-1.8-1.1s0.3-1,1.8-1h1.7V21.8z M41.9,18.1v1.4c0,3.2,1.2,4.2,4.6,4c0.5,0,1.6-0.1,2.7-0.2
	v-1.9c-1,0.1-2,0.2-2.6,0.2c-1.8,0-2.3-0.5-2.3-2.2V18c0-1.7,0.5-2.2,2.3-2.2c0.5,0,1.6,0.1,2.6,0.2v-1.9c-1.1-0.1-2.2-0.2-2.7-0.2
	C43,13.9,41.9,15,41.9,18.1z M83,13.9c-3.7,0-4.8,1.1-4.8,4.2v1.4c0,3.2,1.2,4.2,4.8,4.2c3.6,0,4.8-1.1,4.8-4.2v-1.4
	C87.8,14.9,86.6,13.9,83,13.9z M85.4,19.5c0,1.8-0.5,2.3-2.4,2.2c-1.9,0-2.4-0.5-2.4-2.2v-1.4c0-1.7,0.5-2.2,2.4-2.2
	c1.9,0,2.4,0.5,2.4,2.2V19.5z M113.6,17.8h-1.1c-1,0-1.2-0.2-1.2-0.7v-0.5c0-0.6,0.3-0.7,1.5-0.7c0.9,0,2,0.1,2.9,0.2v-1.9
	c-1.1-0.1-2.1-0.2-3-0.2c-2.7,0-3.7,0.7-3.7,2.6v0.5c0,2.1,0.6,2.8,2.7,2.8h1.1c1,0,1.2,0.2,1.2,0.7v0.5c0,0.6-0.3,0.7-1.7,0.7
	c-1.1,0-2.1-0.1-3.1-0.2v1.9c1.2,0.1,2.2,0.2,3.2,0.2c2.8,0,3.9-0.7,3.9-2.6v-0.5C116.3,18.4,115.7,17.8,113.6,17.8z M67,14.1
	c-0.9,0-2.4,0-3.8,0.2v2c1.4-0.1,2.9-0.2,3.7-0.2c1.1,0,1.5,0.4,1.5,1.5V18h-1.7c-3.2,0-4.2,0.7-4.2,2.9s0.9,2.9,3.7,2.9
	c1.3,0,3.1-0.1,4.5-0.2v-6.5C70.7,14.7,70,14.1,67,14.1z M68.4,21.8c-0.5,0.1-1,0.1-1.7,0.1c-1.5,0-1.8-0.3-1.8-1.1s0.3-1,1.8-1h1.7
	V21.8z M102.6,13.9c-3.3,0-4.4,1.1-4.4,4.2v1.4c0,3.2,1.2,4.2,4.6,4.2c0.5,0,1.6,0,3.2-0.2v-1.9c-1.1,0.1-2.3,0.2-3.2,0.2
	c-1.7,0-2.2-0.4-2.3-1.9h6.2c0.1-0.6,0.2-1.1,0.3-1.8C107,14.9,105.8,13.9,102.6,13.9z M100.5,18.1c0-1.7,0.5-2.1,2.1-2.1
	c1.5,0,2,0.5,2,2.1H100.5z M92.5,20.4v-3.9h3.6v-2h-3.6v-2h-2.3v8.2c0,2.2,0.8,3,3.2,3c0.8,0,1.9-0.1,3-0.2v-1.9
	c-0.9,0.1-1.9,0.2-2.4,0.3C92.9,21.9,92.5,21.5,92.5,20.4z M73.4,23.6h2.3V9.4h-2.3V23.6z"/>
</svg>
