<?xml version="1.0" encoding="utf-8"?>
<!-- Generator: Adobe Illustrator 21.1.0, SVG Export Plug-In . SVG Version: 6.00 Build 0)  -->
<svg version="1.2" baseProfile="tiny" id="Layer_1" xmlns="http://www.w3.org/2000/svg" xmlns:xlink="http://www.w3.org/1999/xlink"
	 x="0px" y="0px" viewBox="0 0 56 48" xml:space="preserve">
<path fill="#663399" d="M1.2,28.5c0-7.5,3-14,7.5-17H5.3c-2.8,0-4-1.1-4-4V0h7.3c3.2,0,4.9,0.9,6.1,2.9C15.9,0.8,17.6,0,20.8,0h7.3
	v7.4c0,2.8-1.1,4-4,4h-6.6V27h30.8l6.5,6.5v10.3c0,2.8-1.1,4.1-4,4.1H22.3C8.9,48.1,1.2,40.3,1.2,28.5z"/>
<path fill="#FFFFFF" d="M50.7,46.3c1.5,0,2.2-0.8,2.2-2.3v-9.7l-5.4-5.4h-32V9.6H24c1.5,0,2.2-0.7,2.2-2.2V1.8h-5.4
	c-3.2,0-5.2,1.6-5.2,4.2h-1.8c0-2.6-2-4.2-5.2-4.2H3v5.6c0,1.5,0.7,2.2,2.2,2.2h8.5C6.9,13.3,3,19.4,3,28.5c0,11.3,7,17.8,19.2,17.8
	C22.3,46.3,50.7,46.3,50.7,46.3z"/>
<circle fill="#663399" cx="35.9" cy="41.3" r="1.8"/>
</svg>
